<svg width="405" height="84" viewBox="0 0 405 84" fill="none" xmlns="http://www.w3.org/2000/svg">
<g clip-path="url(#clip0_1_1332)">
<path d="M69.0322 67.6021C62.3307 63.2287 55.075 60.4683 55.075 60.4683C51.9488 61.9205 48.3735 62.0757 45.1531 60.9339C54.0385 69.4035 61.9095 70.8447 67.1808 69.4146C67.8183 68.8326 68.4391 68.2284 69.0322 67.6021Z" fill="#DDE8F6"/>
<path d="M40.1256 57.6911C35.0483 52.4309 29.4332 46.4888 24.5222 41.4336C20.3982 37.1932 20.3483 30.4585 24.4279 26.1738C25.8968 24.6273 27.7149 23.613 29.6383 23.1196C16.3685 24.1284 9.61157 31.2401 5.06633 38.773C4.94993 40.1144 4.90559 41.478 4.93885 42.8582C5.39891 62.5856 21.4902 78.6713 41.2176 79.1369C51.2337 79.3753 60.3686 75.6448 67.1864 69.4201C62.1368 69.3425 54.4708 67.7128 45.1586 60.9393C43.3128 60.2853 41.589 59.2044 40.1312 57.6967L40.1256 57.6911Z" fill="white"/>
<path d="M79.2978 41.9602C79.2978 40.2918 79.1869 38.6455 78.9708 37.0381C72.8735 43.3515 65.3406 51.1117 58.9717 57.6967C57.8188 58.8885 56.494 59.8142 55.075 60.4738C55.075 60.4738 60.2244 65.3904 69.0322 67.6076C75.39 60.9338 79.2978 51.9099 79.2978 41.9658V41.9602Z" fill="url(#paint0_linear_1_1332)"/>
<path d="M79.2978 41.9602C79.2978 40.2918 79.1869 38.6455 78.9708 37.0381C72.8735 43.3515 65.3406 51.1117 58.9717 57.6967C57.8188 58.8885 56.494 59.8142 55.075 60.4738C55.075 60.4738 60.2244 65.3904 69.0322 67.6076C75.39 60.9338 79.2978 51.9099 79.2978 41.9658V41.9602Z" fill="url(#paint1_linear_1_1332)"/>
<path d="M67.6742 17.4381C68.356 16.7231 68.3338 15.5812 67.6132 14.8994C61.261 8.90746 52.7913 5.13824 43.4459 4.80566C44.6819 5.24356 54.0329 11.3297 67.2806 17.8483L67.6742 17.4326V17.4381Z" fill="#F4F8FF"/>
<path d="M30.9576 22.8482C30.8966 22.8593 30.8356 22.8704 30.7691 22.887C31.3068 22.8094 31.85 22.754 32.3987 22.754C35.1203 22.754 37.853 23.7573 39.9815 25.786L48.3292 33.7291C49.4489 34.7933 51.2171 34.749 52.2814 33.6293L67.2751 17.8596C58.6115 10.3211 44.6764 5.25484 43.4403 4.81695C42.9969 4.80032 42.5535 4.78369 42.11 4.78369C25.6363 4.78369 11.6736 15.4983 6.78467 30.3312C23.1364 21.8616 30.952 22.8538 30.952 22.8538L30.9576 22.8482Z" fill="url(#paint2_linear_1_1332)"/>
<path d="M29.6326 23.1142C30.0095 23.02 30.3864 22.9424 30.7689 22.8814C30.8299 22.8703 30.8909 22.8537 30.9574 22.8426C30.9574 22.8426 21.7616 17.8428 6.79002 30.3201C5.90314 33.0139 5.31004 35.8409 5.06061 38.762C10.0936 32.637 18.1254 25.6085 29.6326 23.1086V23.1142Z" fill="#CBDCF4"/>
</g>
<path d="M359.171 7.38623L376.912 36.0123L377 37.0005L395.189 7.38623H405L383.327 42.0005L405 76.1964H395.189L377.449 48.1079H376.912L359.171 76.1964H349.361L371.5 42.0005L349.361 7.38623H359.171Z" fill="#CBDCF4"/>
<path d="M349 76.0005L359.204 76.0005L381 42.5005L359.204 7.00049L349.217 7.00049L371 42.0005L349 76.0005Z" fill="white"/>
<path d="M341 76.0005L346.421 76.0005L368 42.5005L346.421 7.00049L341.115 7.00049L362.687 42.0005L341 76.0005Z" fill="white"/>
<path d="M334.466 7.38623V76.1964H326.402L288.906 22.1697H288.234V76.1964H279.902V7.38623H287.965L325.596 61.5473H326.268V7.38623H334.466Z" fill="#CBDCF4"/>
<path d="M233.099 76.1964H207.665V7.38623H233.065C240.076 7.38623 246.113 8.76378 251.175 11.5189C256.259 14.2516 260.179 18.1938 262.934 23.3456C265.69 28.475 267.067 34.6124 267.067 41.7577C267.067 48.9254 265.69 55.0852 262.934 60.237C260.202 65.3888 256.293 69.3422 251.208 72.0973C246.124 74.83 240.087 76.1964 233.099 76.1964ZM224.296 62.0177H232.46C236.313 62.0177 239.572 61.3681 242.238 60.069C244.926 58.7475 246.953 56.6083 248.319 53.6516C249.708 50.6726 250.402 46.7079 250.402 41.7577C250.402 36.8075 249.708 32.8652 248.319 29.931C246.93 26.9743 244.881 24.8464 242.17 23.5472C239.483 22.2257 236.167 21.5649 232.225 21.5649H224.296V62.0177Z" fill="white"/>
<path d="M149.27 76.1964V7.38623H197.249V20.8929H165.901V35.0044H194.796V48.5446H165.901V62.6897H197.249V76.1964H149.27Z" fill="white"/>
<path d="M86.6252 76.1964V7.38623H115.05C120.201 7.38623 124.648 8.31579 128.388 10.1749C132.151 12.0117 135.052 14.6547 137.09 18.1042C139.129 21.5313 140.148 25.5967 140.148 30.3005C140.148 35.0716 139.106 39.1258 137.023 42.4633C134.94 45.7784 131.983 48.3095 128.153 50.0566C124.323 51.7813 119.787 52.6437 114.546 52.6437H96.5704V39.5402H111.455C113.963 39.5402 116.058 39.2154 117.738 38.5658C119.44 37.8939 120.728 36.8859 121.601 35.5419C122.475 34.1756 122.912 32.4285 122.912 30.3005C122.912 28.1726 122.475 26.4143 121.601 25.0256C120.728 23.6144 119.44 22.5616 117.738 21.8673C116.035 21.1505 113.941 20.7921 111.455 20.7921H103.257V76.1964H86.6252ZM125.364 44.748L142.5 76.1964H124.357L107.557 44.748H125.364Z" fill="white"/>
<defs>
<linearGradient id="paint0_linear_1_1332" x1="65.0001" y1="62.5" x2="72.6674" y2="44.64" gradientUnits="userSpaceOnUse">
<stop stop-color="#ECF4FF"/>
<stop offset="0.534124" stop-color="#F2F7FF"/>
<stop offset="1" stop-color="#EBF3FF"/>
</linearGradient>
<linearGradient id="paint1_linear_1_1332" x1="69.5001" y1="52" x2="74.2187" y2="93.6828" gradientUnits="userSpaceOnUse">
<stop stop-color="#ECF4FF"/>
<stop offset="1" stop-color="#C7E0FF"/>
</linearGradient>
<linearGradient id="paint2_linear_1_1332" x1="17.344" y1="16.69" x2="64.8528" y2="22.0445" gradientUnits="userSpaceOnUse">
<stop stop-color="#ECF4FF"/>
<stop offset="0.65" stop-color="white"/>
<stop offset="1" stop-color="#EBF3FF"/>
</linearGradient>
<clipPath id="clip0_1_1332">
<rect width="83.1446" height="83.1446" fill="white"/>
</clipPath>
</defs>
</svg>
